<svg xmlns="http://www.w3.org/2000/svg" viewBox="0, 0, 400, 400"><path fill="currentColor" d="M186.670 25.709 C 185.251 74.480,146.241 144.095,91.412 195.700 C -10.687 291.796,44.644 400.000,195.883 400.000 C 352.861 400.000,397.801 299.386,291.557 185.802 C 254.451 146.133,217.644 89.015,206.798 54.271 C 194.147 13.746,187.301 4.031,186.670 25.709 M296.413 233.147 C 316.275 253.009,313.702 260.223,270.368 306.165 C 217.434 362.286,190.479 373.055,214.286 328.571 C 228.146 302.673,225.150 300.000,182.253 300.000 C 129.797 300.000,66.005 263.190,79.794 240.879 C 106.986 196.881,254.868 191.603,296.413 233.147 "></path></svg>
